<?xml version="1.0" standalone="no"?><!DOCTYPE svg PUBLIC "-//W3C//DTD SVG 1.1//EN" "http://www.w3.org/Graphics/SVG/1.1/DTD/svg11.dtd"><svg t="1721980615661" class="icon" viewBox="0 0 1024 1024" version="1.1" xmlns="http://www.w3.org/2000/svg" p-id="2966" xmlns:xlink="http://www.w3.org/1999/xlink" width="32" height="32"><path d="M298.666667 128l426.666667 0 0 85.333333-426.666667 0 0-85.333333Z" p-id="2967"></path><path d="M896 256l-85.333333 0-85.333333 0L298.666667 256 213.333333 256 128 256l0 85.333333 85.333333 0 0 597.333333 597.333333 0L810.666667 341.333333l85.333333 0L896 256zM725.333333 853.333333 298.666667 853.333333 298.666667 341.333333l426.666667 0L725.333333 853.333333z" p-id="2968"></path><path d="M384 426.666667l85.333333 0 0 341.333333-85.333333 0 0-341.333333Z" p-id="2969"></path><path d="M554.666667 426.666667l85.333333 0 0 341.333333-85.333333 0 0-341.333333Z" p-id="2970"></path></svg>